<?xml version="1.0" encoding="UTF-8"?>
<svg version="1.1" viewBox="0 0 3992.9 1404.2" xmlns="http://www.w3.org/2000/svg" xmlns:xlink="http://www.w3.org/1999/xlink">
 <defs>
  <clipPath id="l">
   <use transform="matrix(-1 0 0 1 891.74 -12.143)" width="1" height="1" xlink:href="#s"/>
  </clipPath>
  <clipPath id="k">
   <use width="1" height="1" xlink:href="#a"/>
  </clipPath>
 </defs>
 <g transform="translate(1495.7 -1880.7)">
  <g transform="matrix(-.9994 .034703 .034703 .9994 898.21 1927.6)">
   <use transform="matrix(-1 0 0 1 897.23 15.152)" width="4200" height="2456" xlink:href="#q"/>
   <use id="s" transform="matrix(-1 0 0 1 887.63 15.152)" width="4200" height="2456" xlink:href="#a"/>
   <use transform="matrix(-.99991 .013519 .028698 .9997 849.09 7.4538)" width="4200" height="2456" xlink:href="#n"/>
   <path id="q" transform="matrix(10.278 0 0 10.41 -26608 -17911)" d="m2693.6 1828.7c0 6.2513-6.2233 9.285-11.472 9.4555-6.646 0.2158-11.036-2.2008-11.35-8.8975-0.2382-5.0885 1.7494-10.935 11.006-10.935 9.6494 0 11.816 5.249 11.816 10.377z" fill="#fff" stroke="#000" stroke-width=".19335"/>
   <g id="n" transform="translate(-1.4286 -4.2857)">
    <path id="r" d="m1088.3 1020.5 18.688 31.82 8.0812-34.85 8.5863-8.5863c2.4923 13.051 4.4501 26.671-14.142 62.124-15.908-19.63-24.624-39.616-33.84-56.569z" fill="#fff" stroke="#000" stroke-width="1px"/>
    <use transform="translate(279.81 -37.355)" width="4200" height="2456" fill="#ffffff" xlink:href="#r"/>
    <path d="m854.42 1057.8 16.668 25.759 10.102-28.789 8.5863-8.5863c2.4923 13.051 2.4298 19.6-16.163 55.053-15.908-19.63-22.604-32.544-31.82-49.498z" fill="#fff" stroke="#000" stroke-width="1px"/>
    <path d="m1386.8 1015 2.5253 18.688" fill="#fff" stroke="#000" stroke-width="1px"/>
    <path d="m1107 1052.3 2.5253 18.688" fill="#fff" stroke="#000" stroke-width="1px"/>
    <path d="m871.09 1083.5 2.5253 17.678" fill="#fff" stroke="#000" stroke-width="1px"/>
   </g>
   <use transform="matrix(-1 0 0 1 890.66 16.668)" width="4200" height="2456" xlink:href="#p"/>
   <use transform="matrix(-1 0 0 1 891.74 12.143)" width="4200" height="2456" clip-path="url(#l)" xlink:href="#m"/>
   <path d="m233.01 1006.1c-528.67-12.21-1074.2-43.25-1594.7-65.36-20.204-1.5927-44.121-13.437-52.149-38.579l-53.538-188.22c-1.0518-3.7481-3.3765-5.7976-7.0144-6.0953l57.182 206.83c5.8551 19.384 32.76 37.737 57.619 39.922l666.49 48.111c191.89 14.216 595.3 57.708 595.3 57.708 179.41 31.036 339.05 77.714 339.05 77.714 21.023-50.177 18.809-94.337-8.2509-132.06z" fill="#fff" stroke="#000" stroke-width="2"/>
   <path transform="translate(-1725 -695.64)" d="m2358.2 1694.3c528.02-28.854 1058.8-74.623 1578.4-113.14 20.143-2.2292 41.89-13.465 47.982-34.85l50.508-192.94c0.933-3.7794 3.1919-5.9012 6.8186-6.3135l-46.372 199.31c-5.2408 19.559-25.084 47.329-55.401 50.96l-672.76 72.226c-191.34 20.262-571.24 67.175-571.24 67.175-178.34 36.68-354.56 89.398-354.56 89.398" fill="#fff" stroke="#000" stroke-width="2"/>
   <path d="m449.83 721.84c96.445 0 176.21 76.473 189.28 175.58 3.9539 31.582 8.686 62.01 8.7789 100.94-24.778 63.359-21.393 104.13-17.883 136.28-1.4661 5.8146-2.3096 11.94-9.2857 15 0 0-130.61 30-180 30-62.024 0-184.29-25.714-184.29-25.714-7.1857-2.8536-14.206-6.3317-19.286-17.143l9.2382-67.608c-13.384-28.944-21.264-61.268-21.264-95.564-2.6025-52.44 13.835-102.68 42.546-144.01 43.434-58.388 119.68-106.81 182.16-107.76z" fill="#fff" stroke="#000" stroke-width="2.2883"/>
   <path id="a" transform="matrix(8.4518 0 0 8.5606 -21710 -14529)" d="m2691.4 1828.9c0 5.1283-4.1573 9.2857-9.2857 9.2857-5.1283 0-9.2857-4.1574-9.2857-9.2857 0-5.1284 4.1574-9.2857 9.2857-9.2857 5.1284 0 9.2857 4.1573 9.2857 9.2857z" fill="#fff" stroke="#000" stroke-width=".23513"/>
   <g id="m" clip-path="url(#k)">
    <path transform="translate(-1725 -695.64)" d="m2702.2 1741.8 0.505 29.294-20.708 24.749-29.294-28.789-1.0102-21.213z" fill="#fff" fill-opacity=".88584" stroke="#000" stroke-width="1px"/>
    <path transform="translate(-1725 -695.64)" d="m2673.9 1743.9 8.0718 51.954" fill="none" stroke="#000" stroke-width="1px"/>
   </g>
   <path id="p" transform="matrix(3.5837 0 0 3.5837 -8651.9 -5422.4)" d="m2691.4 1828.9c0 5.1283-4.1573 9.2857-9.2857 9.2857-5.1283 0-9.2857-4.1574-9.2857-9.2857 0-5.1284 4.1574-9.2857 9.2857-9.2857 5.1284 0 9.2857 4.1573 9.2857 9.2857z" fill="#fff" stroke="#000" stroke-width=".55809"/>
   <path id="o" transform="translate(-1720.7 -694.25)" d="m2691.4 1828.9c0 5.1283-4.1573 9.2857-9.2857 9.2857-5.1283 0-9.2857-4.1574-9.2857-9.2857 0-5.1284 4.1574-9.2857 9.2857-9.2857 5.1284 0 9.2857 4.1573 9.2857 9.2857z" fill="#fff" stroke="#000" stroke-width="2"/>
   <use transform="matrix(-1 0 0 1 890.16 13.637)" width="4200" height="2456" xlink:href="#o"/>
   <path transform="matrix(1.2533 0 0 1.3289 -2288.7 -1226.2)" d="m2313.2 1656c0 84.8-68.744 153.54-153.54 153.54-84.8 0-153.54-68.744-153.54-153.54 0-84.8 68.744-153.54 153.54-153.54 84.8 0 153.54 68.744 153.54 153.54z" fill="none" stroke="#000" stroke-width=".77485"/>
   <g fill="#fff" fill-opacity=".93151" stroke="#000">
    <path transform="translate(-1725 -695.64)" d="m2121.4 1717.1c3.6614-3.6615 18.987-3.9258 23.36-0.7578 5.7956 4.1985 11.405 28.505 10.733 38.386-0.2809 4.1316-0.3572 8.7391-3.9144 10.859-8.9713 5.3466-22.391 4.4155-31.315-1.0101-4.1219-2.5061-7.0711-7.8029-7.0711-12.627 0-7.4027 4.8121-31.455 8.2075-34.85z"/>
    <path transform="translate(-1725 -695.64)" d="m2130.4 1758.5s-6.7932 5.8162-7.0711 9.9753c-0.3033 4.5386 6.566 9.2176 6.566 9.2176l10.859 0.3788s6.656-4.3928 7.1974-7.955c0.744-4.8953-6.566-11.49-6.566-11.49z"/>
   </g>
   <path transform="translate(-1725 -695.64)" d="m1956.2 1606c18.047 16.652 83.745 32.958 170.72 33.316 112.5 0.4628 218.73-47.942 232.08-65.66" fill="none" stroke="#000" stroke-width="1px"/>
   <path d="m222.57 968.4s63.551 10.607 178.29 10.607c243.04 0 240.16-64.145 240.16-64.145" fill="none" stroke="#000" stroke-width="1px"/>
   <g stroke="#000">
    <path transform="translate(-1725 -695.64)" d="m2099.3 1492.1 2.5001-748.21s5.8359-7.3514 9.9999-7.5c6.1703-0.22014 11.429 4.2857 11.429 4.2857l43.571 742.5c-3.1034 15.811-20.288 24.507-32.5 32.857-13.9-4.7073-30.214-13.27-35-23.928z" fill="#fff" stroke-width="2"/>
    <path d="m491.29 851.47 666.02-78.19s4.7869-0.0634 5.2996 2.7349c0.583 3.1822-5.44 4.7865-5.44 4.7865l-673.71 119.37c-16.094-0.77737-28.369-12.829-50.672-25.707 22.999-13.007 43.925-21.587 58.477-22.999z" fill="#fff" stroke-width="2"/>
    <path d="m312.18 851.59-668.52-52.675s-4.7858 0.11962-5.1912 2.9355c-0.46094 3.2021 5.619 4.5751 5.619 4.5751l677.76 93.536c16.052-1.392 24.08-14.158 48.02-24.524-23.479-12.118-43.085-22.992-57.68-23.847z" fill="#fff" stroke-width="2"/>
    <path transform="translate(-1725 -695.64)" d="m2094.9 1571.1-731.4-73.6" fill="none" stroke-width="1px"/>
    <path transform="translate(-1725 -695.64)" d="m2134.3 1516-22.805-766.56c5.5797-3.5306 9.7898-5.0465 11.734-8.7986" fill="none" stroke-width="1px"/>
    <path transform="translate(-1725 -695.64)" d="m2157.8 1570.1 729.8-98.454" fill="none" stroke-width="1px"/>
   </g>
   <g fill="none" stroke="#000" stroke-width="1px">
    <path transform="translate(-1725 -695.64)" d="m2353.7 1775.2s278.52-62.59 337.9-71.721c56.609-8.7052 561.14-54.043 561.14-54.043l14.647 20.203"/>
    <path transform="translate(-1725 -695.64)" d="m2354.2 1795.9 212.64-50.508 6.8677 18.872"/>
    <path transform="translate(-1725 -695.64)" d="m2749.1 1729.7-2.5254-12.627 478.81-51.518 2.5254 7.5762"/>
    <path transform="translate(-1725 -695.64)" d="m2742.9 1697.4-1.32-11.688 505.58-42.426 5.5558 6.0609"/>
    <path d="m1218.1 972.95 2.0203 9.5964"/>
    <path d="m1328.2 964.36 2.5254 7.5761"/>
    <path d="m1425.5 955.8 3.1862 7.0438"/>
    <path d="m1106.7 982.56 1.7564 10.146"/>
    <path transform="translate(-1725 -695.64)" d="m2506.3 1741.4 0.1206-19.546 184.35-32.83 0.7576 14.395"/>
    <path transform="translate(-1725 -695.64)" d="m3252.7 1649.4 405.58-34.976 10.48 10.859"/>
   </g>
   <g fill="#fff" fill-opacity=".93151" stroke="#000">
    <path transform="translate(-1725 -695.64)" d="m2127.4 1559.5c23.576 0 40.615 96.47 0 96.47s-23.576-96.47 0-96.47z"/>
    <path transform="matrix(1.1818 0 0 1.3273 -2120.8 -1226.6)" d="m2149.1 1622.4c0 7.671-6.2186 13.89-13.89 13.89-7.6711 0-13.89-6.2186-13.89-13.89 0-7.671 6.2185-13.89 13.89-13.89 7.671 0 13.89 6.2186 13.89 13.89z" stroke-width=".79844"/>
    <path transform="matrix(.72565 0 0 .81818 -1148 -447.38)" d="m2149.1 1622.4c0 7.671-6.2186 13.89-13.89 13.89-7.6711 0-13.89-6.2186-13.89-13.89 0-7.671 6.2185-13.89 13.89-13.89 7.671 0 13.89 6.2186 13.89 13.89z" stroke-width="1.2978"/>
   </g>
   <g transform="matrix(-.9996 .028336 .028336 .9996 841.64 -9.6798)" fill="none" stroke="#000" stroke-width="1px">
    <path transform="translate(-1725 -695.64)" d="m2353.7 1775.2s278.52-62.59 337.9-71.721c56.609-8.7052 561.14-54.043 561.14-54.043l11.633 16.372"/>
    <path transform="translate(-1725 -695.64)" d="m2356.8 1795.2 209.98-49.807 7.538 20.461"/>
    <path transform="translate(-1725 -695.64)" d="m2749.8 1730.9-3.1923-13.871 477.84-54.648 2.5254 7.5762"/>
    <path transform="translate(-1725 -695.64)" d="m2742.9 1697.4-2.6977-11.27 506.96-42.844 5.5558 6.0609"/>
    <path d="m1218.1 972.95 2.0203 9.5964"/>
    <path d="m1328.2 964.36 2.5254 7.5761"/>
    <path d="m1425.5 955.8 3.1862 7.0438"/>
    <path d="m1106.7 982.56 1.7564 10.146"/>
    <path transform="translate(-1725 -695.64)" d="m2506.3 1741.4 0.1206-19.546 184.35-32.83 0.7576 14.395"/>
    <path transform="translate(-1725 -695.64)" d="m3252.7 1649.4 405.58-34.976 10.48 10.859"/>
   </g>
   <path transform="translate(-1725 -695.64)" d="m2101.8 743.86c2.3723 3.2572 6.0991 3.5833 9.695 5.458" fill="none" stroke="#000" stroke-width="1px"/>
  </g>
 </g>
</svg>
